<?xml version="1.0" encoding="UTF-8" standalone="no"?>
<!-- Created with Inkscape (http://www.inkscape.org/) -->

<svg
   xmlns:dc="http://purl.org/dc/elements/1.1/"
   xmlns:cc="http://creativecommons.org/ns#"
   xmlns:rdf="http://www.w3.org/1999/02/22-rdf-syntax-ns#"
   xmlns:svg="http://www.w3.org/2000/svg"
   xmlns="http://www.w3.org/2000/svg"
   xmlns:sodipodi="http://sodipodi.sourceforge.net/DTD/sodipodi-0.dtd"
   xmlns:inkscape="http://www.inkscape.org/namespaces/inkscape"
   width="283.46457"
   height="283.46457"
   id="svg3112"
   version="1.1"
   inkscape:version="0.48.5 r10040"
   sodipodi:docname="saturn.gcode">
  <defs
     id="defs3114" />
  <sodipodi:namedview
     id="base"
     pagecolor="#ffffff"
     bordercolor="#666666"
     borderopacity="1.0"
     inkscape:pageopacity="0.0"
     inkscape:pageshadow="2"
     inkscape:zoom="1.979899"
     inkscape:cx="189.0972"
     inkscape:cy="186.78602"
     inkscape:document-units="mm"
     inkscape:current-layer="layer1"
     showgrid="false"
     units="mm"
     inkscape:window-width="1366"
     inkscape:window-height="705"
     inkscape:window-x="-8"
     inkscape:window-y="-8"
     inkscape:window-maximized="1" />
  <metadata
     id="metadata3117">
    <rdf:RDF>
      <cc:Work
         rdf:about="">
        <dc:format>image/svg+xml</dc:format>
        <dc:type
           rdf:resource="http://purl.org/dc/dcmitype/StillImage" />
        <dc:title></dc:title>
      </cc:Work>
    </rdf:RDF>
  </metadata>
  <g
     inkscape:label="Layer 1"
     inkscape:groupmode="layer"
     id="layer1"
     transform="translate(0,-768.89763)">
    <path
       style="fill:#000000"
       d="m 233.25992,907.21591 c -0.94281,-1.02711 -1.7142,-2.34472 -1.7142,-2.92803 0,-0.79684 -0.93117,-0.93733 -3.74484,-0.56503 -2.06663,0.27343 -4.27481,0.13484 -4.92743,-0.30928 -0.98532,-0.67055 -0.69197,-1.27364 1.75855,-3.61556 2.55824,-2.44486 2.83412,-3.05111 2.11922,-4.65697 -0.63766,-1.43229 -1.91564,-2.07059 -5.70049,-2.84713 -2.68321,-0.55052 -5.84386,-1.21401 -7.02366,-1.47442 -1.76794,-0.39023 -2.30815,-0.10726 -3.0725,1.60973 -0.83319,1.87152 -0.67531,2.34712 1.5538,4.68058 1.36467,1.42857 2.48121,2.90138 2.48121,3.27293 0,0.37155 -3.10428,0.57495 -6.89838,0.45199 -6.47214,-0.20975 -7.20873,-0.0592 -11.92088,2.43597 -2.76237,1.46276 -5.21624,2.46127 -5.45302,2.21894 -0.23679,-0.24234 -0.0419,-0.44063 0.43295,-0.44063 0.47491,0 1.40781,-0.55711 2.07313,-1.23803 0.95667,-0.97911 1.02856,-1.64482 0.34372,-3.18313 -2.20167,-4.94549 -6.55686,-2.78854 -9.53434,4.72198 -0.551,1.38988 -0.30927,1.48188 2.75937,1.05031 2.27661,-0.32017 2.85381,-0.24213 1.78648,0.24155 -0.86723,0.39299 -2.74227,0.74006 -4.16677,0.77125 -2.38665,0.0523 -2.52091,-0.0754 -1.71001,-1.62616 0.48402,-0.92558 0.68749,-1.8799 0.45219,-2.12072 -0.23531,-0.24083 -3.80786,-0.002 -7.93901,0.52975 -8.77772,1.13078 -10.99119,0.73381 -10.22772,-1.83424 0.76575,-2.5757 2.36511,-4.17061 6.31952,-6.30191 3.77775,-2.03608 5.18519,-4.81982 3.57526,-7.07144 -3.75535,-5.25215 -3.86793,-9.77332 -0.40272,-16.17335 1.93681,-3.57715 1.9383,-3.59735 0.42127,-5.69737 -2.27604,-3.15073 -6.15428,-11.33258 -6.78488,-14.31401 -0.34463,-1.6293 -1.05344,-2.65283 -1.87172,-2.7028 -0.73554,-0.045 -0.44681,-0.32237 0.65393,-0.62841 5.90199,-1.64089 6.20324,-16.39589 0.38101,-18.66143 -3.11661,-1.21272 -3.10476,-1.03951 0.14337,2.09573 l 3.00179,2.89747 -2.71253,1.16729 c -3.5537,1.52927 -3.54347,1.51125 -2.07663,3.65457 1.69457,2.47608 1.59335,3.09539 -0.51087,3.12582 -1.75441,0.0254 -1.75657,0.0393 -0.1971,1.26527 1.55293,1.22086 1.54232,1.26804 -0.70208,3.12086 -2.0403,1.68434 -2.12283,1.92217 -0.78839,2.2721 1.11309,0.29188 0.99142,0.39961 -0.48051,0.42547 -4.7631,0.0836 -9.27348,-5.45363 -7.20432,-8.8446 0.49348,-0.80872 0.89722,-2.72906 0.89722,-4.26745 0,-3.75359 1.21902,-6.26115 3.78571,-7.78732 1.40216,-0.83374 2.60356,-2.6727 3.52476,-5.39528 0.89062,-2.6322 2.24898,-4.7509 3.74483,-5.84103 3.20359,-2.33467 2.98863,-4.39367 -0.70805,-6.78202 -5.76348,-3.72366 -8.04776,-8.06529 -5.95957,-11.32703 1.02595,-1.60253 1.1125,-2.3109 0.39107,-3.20055 -0.72808,-0.89788 -0.49351,-2.01703 1.09542,-5.22619 2.18101,-4.40498 4.12626,-6.06977 8.07628,-6.91188 2.49789,-0.53253 2.51506,-0.56952 2.06606,-4.44959 -0.24902,-2.15193 -0.23687,-4.79302 0.0271,-5.86907 0.47363,-1.93131 0.58194,-1.95314 8.42198,-1.69732 4.36821,0.14255 8.51183,0.58543 9.20804,0.98418 0.84758,0.48546 2.55032,0.1787 5.15315,-0.92837 l 3.88732,-1.65338 4.85687,2.38431 c 4.27304,2.09767 5.37814,2.31779 9.19302,1.83113 2.38488,-0.30423 5.62441,-0.58906 7.19899,-0.63295 2.73105,-0.0761 2.90131,0.0781 3.69819,3.34944 0.45942,1.88608 0.76763,4.10043 0.68487,4.92078 -0.11796,1.16969 1.19204,2.00099 6.07102,3.8525 3.42181,1.29853 7.77168,3.43174 9.66639,4.74046 4.48108,3.09517 6.64453,2.29798 8.23722,-3.0353 0.66754,-2.23529 1.97302,-4.34983 3.30521,-5.35355 2.90589,-2.1894 7.68883,-2.18087 10.5756,0.0189 3.41618,2.60314 3.9346,5.15269 2.33777,11.49681 l -1.37697,5.47062 3.28928,7.01586 c 2.56151,5.46353 3.37464,8.23666 3.67503,12.53338 0.34641,4.95502 0.16419,5.9044 -1.78723,9.31236 -1.84842,3.22806 -2.03968,4.09421 -1.28061,5.79929 0.4908,1.10244 0.85119,3.34895 0.8009,4.99227 -0.0945,3.08837 -0.24431,2.73936 -1.08877,-2.53724 -0.47407,-2.9622 -0.56372,-3.04246 -1.9571,-1.75189 -1.42109,1.31625 -1.4202,1.44285 0.0328,4.71819 0.82121,1.85111 1.53626,4.09185 1.58901,4.97941 0.0802,1.34939 0.19967,1.28329 0.72929,-0.40344 0.36115,-1.15011 0.48535,1.79794 0.28897,6.85849 -0.48642,12.5342 -0.86178,15.36071 -2.74002,20.6328 l -1.65779,4.65332 2.54126,4.34839 c 1.59951,2.7369 4.25728,5.63419 7.17169,7.81795 2.54672,1.90826 4.4333,3.79597 4.19239,4.19491 -1.13395,1.8778 -5.76025,3.36013 -10.75483,3.44598 -2.94251,0.0506 -5.35024,0.24774 -5.35049,0.43812 -2.5e-4,0.19038 0.4255,1.55176 0.94613,3.02528 1.31418,3.71954 0.38602,4.28538 -5.41674,3.30239 -4.43731,-0.75168 -5.07296,-0.672 -7.2405,0.90762 -5.8897,4.29222 -13.68584,5.35355 -16.53386,2.25084 z m 12.54912,-1.39781 c 1.69465,-0.88482 3.08119,-2.00721 3.08119,-2.49419 0,-0.48697 -1.40555,-2.32394 -3.12346,-4.08214 -2.49603,-2.55458 -3.48204,-3.08027 -4.90847,-2.61692 -2.34593,0.76204 -8.52419,6.07196 -8.52419,7.32614 0,0.53948 0.97461,1.76549 2.16578,2.72444 2.54208,2.04651 6.29209,1.76222 11.30915,-0.85733 z m -65.91691,-3.25025 c 3.44035,-0.52304 5.08843,-1.21206 6.09246,-2.54716 1.86524,-2.48023 1.78915,-2.74788 -1.07137,-3.76844 -6.45622,-2.30346 -14.47908,-0.39071 -17.62165,4.20118 -2.74898,4.01678 -1.40056,4.24306 12.60056,2.11442 z m 81.73284,-1.16455 c -0.15051,-0.86351 -0.99302,-2.60396 -1.87224,-3.86766 l -1.59858,-2.29765 -1.8726,3.3741 c -1.02993,1.85576 -1.8726,3.49558 -1.8726,3.64407 0,0.34673 4.7567,0.97017 6.30711,0.82662 0.71698,-0.0664 1.07484,-0.7276 0.90891,-1.67948 z m -29.41956,-0.0345 c 0.14602,-0.12392 -0.65222,-0.84072 -1.77388,-1.5929 -1.89396,-1.27008 -2.17989,-1.27335 -4.01033,-0.0458 -3.05695,2.04997 -2.40084,2.92499 1.77387,2.36573 2.05966,-0.27592 3.86431,-0.60306 4.01034,-0.72698 z m 21.71761,-1.97033 c 2.51473,-2.84881 2.85058,-3.72934 2.8467,-7.46365 -0.005,-5.17911 -1.12648,-9.54303 -3.08878,-12.02322 l -1.47712,-1.86696 -0.89441,3.39951 c -0.67297,2.55783 -1.76043,4.0529 -4.39221,6.03852 -10.29945,7.77066 -13.86698,8.85771 -18.34933,5.59112 l -2.48154,-1.80846 0.83329,2.44645 c 0.80026,2.3495 4.78072,6.49589 6.23593,6.49589 0.38526,0 1.91266,-1.08929 3.39424,-2.42064 3.89482,-3.49992 6.37113,-3.22419 10.30895,1.14785 1.76774,1.96268 3.43889,3.5966 3.71364,3.63096 0.27475,0.0344 1.78254,-1.39096 3.35064,-3.16737 z m -51.98548,0.33638 c 4.39665,-2.13576 7.26151,-4.74161 8.05106,-7.32315 0.7655,-2.5029 0.70774,-2.58603 -3.04732,-4.38607 -2.10518,-1.00913 -4.23156,-2.33296 -4.72528,-2.9418 -0.74457,-0.91821 -5.60801,-3.43442 -6.63818,-3.43442 -0.16386,0 -0.3058,0.45387 -0.31546,1.00861 -0.01,0.55473 -0.72932,1.91634 -1.59929,3.0258 l -1.58177,2.01721 1.32924,-3.5278 c 1.27617,-3.38699 1.26956,-3.56197 -0.16581,-4.38408 -2.76678,-1.58469 -9.13855,-8.16199 -10.6853,-11.02996 -0.84359,-1.56417 -2.41588,-4.09198 -3.49399,-5.61734 -1.75781,-2.48705 -3.2211,-6.65344 -4.62678,-13.1738 -0.47286,-2.19338 -0.5196,-2.2097 -2.82818,-0.98789 -1.29104,0.6833 -2.3439,1.86844 -2.33966,2.63367 0.01,1.7281 3.01189,8.40026 5.85156,13.00411 2.06124,3.34183 2.1882,3.41309 3.65677,2.05288 2.40527,-2.2278 1.77253,-0.50551 -1.05739,2.87816 -3.41988,4.08909 -5.43531,10.02004 -4.65674,13.70372 0.43521,2.05912 1.64365,3.63853 4.5064,5.88982 4.47476,3.519 7.18827,3.62539 11.60597,0.45499 2.02015,-1.44977 2.30729,-1.51839 1.37219,-0.32794 -2.66588,3.39385 -9.28417,4.68151 -12.43878,2.4201 -1.6591,-1.18934 -1.75194,-1.15718 -1.74738,0.60517 0.004,1.65573 0.40169,1.8726 3.59944,1.96426 1.97703,0.0567 4.90176,0.65773 6.49937,1.33568 1.59762,0.67796 4.04599,1.66916 5.44081,2.20266 1.39482,0.53352 2.75867,1.68794 3.03078,2.56539 0.54444,1.7556 2.44834,1.58488 7.00372,-0.62798 z m 9.73695,-1.67304 c -2.06049,-2.10882 -2.13341,-2.12122 -4.2251,-0.71855 -2.64008,1.77042 -1.45217,2.83378 3.18614,2.85205 l 3.13564,0.0124 -2.09668,-2.14586 z m 63.01206,-3.80567 c 1.19955,-1.28574 1.23152,-1.5619 0.22048,-1.90388 -0.65043,-0.22 -3.36577,-2.70062 -6.03408,-5.51249 -4.58462,-4.83126 -4.87735,-5.0071 -5.32135,-3.19657 -0.25843,1.05376 -1.5343,3.00535 -2.83528,4.33685 -2.66228,2.72474 -3.10535,6.03502 -0.98576,7.36494 0.7633,0.47892 4.09896,0.76501 7.46632,0.64036 4.71476,-0.17454 6.40285,-0.56427 7.48967,-1.72921 z m -35.7352,-2.75814 c 0.91346,-0.8314 3.25774,-2.44207 5.20953,-3.57927 4.74396,-2.76407 6.1346,-4.4838 6.73543,-8.32935 0.48173,-3.08326 0.33126,-3.39027 -3.35129,-6.83741 -2.12063,-1.98506 -5.53077,-4.60317 -7.57809,-5.818 -2.04731,-1.21484 -4.06129,-3.1211 -4.47551,-4.23612 -0.9296,-2.50241 -1.04504,-2.50186 -5.25745,0.0247 -4.09433,2.45574 -6.52559,6.84624 -7.13444,12.8838 -0.80946,8.02691 1.68726,13.95536 7.2636,17.24741 2.08524,1.23105 6.51434,0.53187 8.58822,-1.35572 z m -14.10321,-0.77117 c -0.30755,-0.77663 -0.89617,-2.36298 -1.30804,-3.52523 -0.74817,-2.11121 -0.75768,-2.11327 -10.16839,-2.20758 -5.18075,-0.0519 -9.41955,0.0559 -9.41955,0.23973 0,0.82168 17.67187,6.65634 20.77952,6.86069 0.3716,0.0245 0.42401,-0.591 0.11647,-1.36761 z m 36.27122,-4.54057 c 2.67251,-4.17445 2.65342,-6.20432 -0.11672,-12.41568 -2.12473,-4.76411 -4.24083,-7.58353 -11.30163,-15.05792 -4.77808,-5.05797 -8.87048,-8.89312 -9.09424,-8.52258 -0.22376,0.37055 -1.43388,0.90458 -2.68915,1.18675 -2.83396,0.63704 -3.60486,3.20487 -2.37527,7.91188 1.13024,4.32673 1.80181,5.12521 6.25178,7.43306 5.5322,2.86915 13.00809,11.48562 14.68275,16.92289 1.49176,4.84338 2.73363,5.52327 4.64252,2.5416 z m -38.85693,-9.22565 c 0.21784,-3.91018 0.81781,-7.91594 1.33327,-8.90167 0.88079,-1.68437 0.80422,-1.7661 -1.2722,-1.35799 -2.20186,0.43278 -2.20132,0.43111 0.15576,-0.4879 3.11913,-1.21615 3.32027,-1.45841 1.94814,-2.34653 -0.908,-0.5877 -0.75832,-0.75334 0.68952,-0.76301 1.01709,-0.006 2.79097,-0.6909 3.94194,-1.52025 1.15096,-0.82935 2.80221,-1.73274 3.66944,-2.00755 1.22843,-0.38927 1.57677,-1.20413 1.57677,-3.68845 0,-3.07846 -0.11959,-3.22305 -3.4577,-4.17959 -2.75915,-0.79063 -3.95372,-0.78389 -5.9129,0.0334 -1.35036,0.56329 -3.25244,1.21106 -4.22684,1.43949 -2.49319,0.58444 -9.6698,-1.95598 -12.05954,-4.26894 -1.67459,-1.62077 -2.40023,-1.82502 -4.39919,-1.23827 -8.26493,2.42594 -18.30359,1.75774 -24.9494,-1.66073 -2.61136,-1.34324 -3.02846,-1.37816 -3.43726,-0.28783 -0.56256,1.50039 0.14701,5.92604 1.78255,11.11802 1.71854,5.45545 5.05093,7.22854 18.4235,9.80269 5.85378,1.12683 11.70755,2.18607 13.00839,2.35385 1.30084,0.1678 -0.0545,0.35948 -3.01196,0.42597 -5.92573,0.13321 -17.62052,-1.7933 -21.62515,-3.5624 -1.40924,-0.62253 -2.56225,-0.93087 -2.56225,-0.68518 0,1.11044 4.89414,7.55968 7.71891,10.17155 7.32384,6.77185 12.13986,8.3504 26.26948,8.61036 l 6.00065,0.11035 0.39607,-7.10945 z m -7.84771,-8.70878 c 0.26197,-0.26811 0.94195,-0.29678 1.51107,-0.0637 0.62893,0.25758 0.44211,0.44877 -0.47632,0.48749 -0.83109,0.0351 -1.29673,-0.15567 -1.03475,-0.4238 z m -3.76127,-1.15093 c 2.60169,-0.42351 5.76348,-1.1375 7.02624,-1.58664 1.26275,-0.44914 2.43387,-0.67541 2.6025,-0.50283 0.66074,0.67624 -5.14293,2.19386 -9.62874,2.51784 l -4.73033,0.34166 4.73033,-0.77003 z m 55.92199,-10.48795 c 0.0445,-9.07666 -0.19914,-11.49 -1.44589,-14.32214 -0.82468,-1.87334 -1.72239,-3.40608 -1.99491,-3.40608 -0.27252,0 -3.46153,1.28027 -7.08669,2.84503 -3.62516,1.56477 -6.76451,2.66765 -6.97634,2.45085 -0.21182,-0.21679 0.50319,-0.80841 1.58891,-1.3147 1.81765,-0.84761 1.90893,-1.13764 1.15218,-3.66117 -0.77256,-2.57628 -2.13407,-3.77565 -2.13407,-1.87993 0,0.4734 -0.88693,2.05083 -1.97097,3.50541 -2.25183,3.02155 -2.75198,5.37056 -0.78839,3.70268 0.65043,-0.55246 1.18258,-0.652 1.18258,-0.22119 0,0.4308 -1.45385,1.36777 -3.23078,2.08214 l -3.2308,1.29886 1.64209,2.3602 c 0.90315,1.2981 2.89976,3.49034 4.43691,4.87165 5.32253,4.78286 11.53113,12.54135 13.57581,16.96482 l 2.05381,4.44323 1.58652,-4.40181 c 1.28575,-3.56728 1.59668,-6.47136 1.64003,-15.31785 z m -40.83373,-7.4826 c 2.6024,-2.90632 2.98099,-4.1945 2.6543,-9.03136 -0.5029,-7.4459 -7.67082,-11.97505 -14.65245,-9.25837 l -2.13706,0.83157 1.77603,1.93482 c 0.97681,1.06417 1.60578,2.41467 1.39769,3.00113 -0.20809,0.58645 0.34461,1.87966 1.2282,2.87378 1.42897,1.60773 1.49135,2.05362 0.56434,4.0344 -0.5732,1.22479 -1.09411,3.57262 -1.15757,5.21739 -0.094,2.43588 0.18482,3.04262 1.50338,3.27163 4.11991,0.71556 6.22115,0.0309 8.82314,-2.87499 z m 17.12674,-3.85073 c 7.21277,-7.82883 8.33849,-12.3237 4.93584,-19.70842 -2.0095,-4.3612 -3.85226,-6.34781 -8.79726,-9.48398 -2.66415,-1.68963 -3.9103,-3.5112 -7.65812,-11.1943 -5.14954,-10.55667 -7.38377,-14.42102 -8.33768,-14.42102 -0.37058,0 -1.14504,1.46141 -1.72102,3.24759 -0.8364,2.5938 -0.86182,4.27752 -0.12619,8.36355 0.50657,2.81378 0.92105,6.65612 0.92105,8.53851 0,2.42004 0.28866,3.30175 0.98548,3.01018 3.01674,-1.26231 3.84279,-1.30265 1.77388,-0.0866 -2.61231,1.53539 -2.72058,1.66272 -7.94264,9.34077 -2.01378,2.96089 -3.51345,5.83774 -3.33261,6.393 0.18084,0.55527 1.4216,-0.80808 2.75721,-3.02966 3.22479,-5.36387 6.67532,-7.06953 13.21477,-6.53229 6.87784,0.56504 9.63586,2.27057 11.91654,7.36911 2.26695,5.06781 2.62121,10.66429 0.90806,14.3452 -1.57239,3.37847 -5.74521,7.46027 -8.84907,8.65607 -2.23732,0.86195 -2.1734,0.89221 1.18258,0.55985 3.14745,-0.31171 4.06918,-0.91735 8.16918,-5.36751 z m -28.82178,2.77 c 0.21061,-1.50386 -0.15928,-1.71716 -3.04865,-1.75797 l -3.28832,-0.0464 1.83134,1.99509 c 2.13851,2.32975 4.1647,2.24399 4.50563,-0.19068 z m 17.90082,-0.64544 c 4.51908,-4.90403 4.34632,-13.94978 -0.35445,-18.55905 -2.64287,-2.59141 -8.16426,-3.74511 -11.84817,-2.47565 -3.09885,1.06786 -4.51763,3.3793 -1.59393,2.5968 2.83451,-0.75863 8.986,2.84402 10.52545,6.16427 1.76291,3.8022 1.64305,9.20755 -0.27558,12.42816 -1.36679,2.29428 -1.40274,2.62236 -0.28724,2.62236 0.70125,0 2.42651,-1.24961 3.83392,-2.77689 z m -69.1537,0.70447 c 2.2609,-1.62074 1.557,-2.76887 -1.69759,-2.76887 -1.40534,0 -2.98087,-0.43571 -3.50121,-0.96825 -0.73583,-0.75309 -0.94608,-0.66343 -0.94608,0.40344 0,1.3846 2.63261,4.59922 3.76652,4.59922 0.33713,0 1.4074,-0.5695 2.37836,-1.26554 z m 72.71554,-0.10164 c 2.99692,-2.10198 5.40942,-5.21195 6.38626,-8.23249 1.62852,-5.03574 -1.53044,-14.49851 -5.79466,-17.35808 -1.00495,-0.67391 -3.84916,-1.46852 -6.32048,-1.76578 -5.16991,-0.62188 -8.56183,0.46335 -10.39428,3.32563 -1.19155,1.86118 -1.18322,1.86807 1.34124,1.10908 5.28104,-1.58774 12.04886,1.14452 14.40997,5.81753 1.90663,3.77349 1.30519,12.71863 -1.07687,16.01612 -1.98391,2.74631 -1.46795,3.13378 1.44882,1.08799 z m -59.99063,-6.7103 c 1.60756,-5.41671 1.62433,-5.80075 0.34975,-8.00909 -2.29058,-3.9686 -8.1557,-6.58779 -11.66537,-5.20941 -1.91598,0.75247 -1.47865,2.0186 0.52681,1.52519 2.81155,-0.69175 6.66494,2.24508 7.73302,5.89366 0.89329,3.05145 0.40114,7.67074 -1.2521,11.7521 -0.53379,1.31777 -0.40826,1.39542 1.00468,0.6215 1.0548,-0.57776 2.20016,-2.85722 3.30321,-6.57395 z m 22.86426,6.07053 c 3.65795,-0.65884 7.02831,-1.61952 7.48969,-2.13484 0.61858,-0.69093 0.47447,-0.80567 -0.54876,-0.43698 -3.5609,1.28307 -12.27129,2.32192 -16.31893,1.94628 -2.46534,-0.22878 -5.95041,-1.18245 -7.7446,-2.11926 -3.82426,-1.99674 -6.40352,-2.26387 -2.93079,-0.30352 3.06508,1.73022 9.80803,4.11973 11.82581,4.19074 0.86723,0.0305 4.56964,-0.48358 8.22758,-1.14242 z m 1.32094,-2.16344 c 4.58357,-0.86436 4.96355,-1.09144 4.56257,-2.72657 -0.60454,-2.46515 3.1972,-9.91996 5.51977,-10.82371 1.84376,-0.71745 2.83819,-2.33608 2.83819,-4.61975 0,-0.67626 0.92732,-2.35749 2.06073,-3.73607 3.05822,-3.71975 1.09755,-3.67678 -6.29414,0.13793 -8.96132,4.62476 -12.56994,5.76658 -18.22474,5.76658 -3.82236,0 -5.50961,-0.41145 -7.58766,-1.8503 -1.46974,-1.01768 -3.02705,-2.07272 -3.46066,-2.34457 -0.49836,-0.31244 -0.79582,1.77814 -0.8086,5.68299 -0.0112,3.39748 -0.32154,7.3573 -0.68985,8.79961 -0.51404,2.01309 -0.41775,2.63316 0.41442,2.66886 0.59622,0.0255 2.8579,0.92039 5.02597,1.98844 4.47095,2.20255 9.03177,2.49208 16.644,1.05656 z m 14.54912,-0.69925 c 2.2267,-1.21965 1.95078,-4.35529 -0.48311,-5.49025 -2.75483,-1.28463 -3.86249,-1.18439 -6.74631,0.6105 l -2.48537,1.5469 2.03629,2.08405 c 2.14107,2.19129 5.08398,2.66992 7.6785,1.2488 z m -51.41546,-0.85713 2.48198,-0.88553 -1.3515,-2.34157 c -1.05479,-1.8275 -1.85364,-2.30243 -3.6387,-2.16322 -2.70673,0.21108 -3.42735,1.6075 -2.22419,4.31009 0.99415,2.2331 1.30329,2.30366 4.73241,1.08023 z m 96.27246,-4.61532 c 2.54179,-1.28129 5.04829,-3.29704 6.11596,-4.91852 0.995,-1.51113 1.70113,-2.85798 1.56919,-2.99302 -0.13195,-0.13505 -3.3276,1.39501 -7.10144,3.40012 -6.28983,3.34189 -7.759,4.79039 -6.33596,6.24681 0.73652,0.7538 0.93009,0.69539 5.75225,-1.73539 z m -47.72001,-1.76109 c 1.4591,0 2.0228,-0.42565 2.0228,-1.52743 0,-1.50377 -1.43739,-2.50697 -3.59198,-2.50697 -0.60382,0 -1.63912,1.07125 -2.30068,2.38057 -1.56842,3.10415 -1.5176,3.49679 0.32212,2.4891 0.83871,-0.4594 2.4352,-0.83527 3.54774,-0.83527 z m -44.31303,-0.90494 c 1.61406,-0.88408 1.59222,-0.95849 -0.94705,-3.22753 -3.24057,-2.89569 -6.04457,-3.03396 -7.23639,-0.35683 -1.38781,3.11737 -0.37897,4.4893 3.30118,4.4893 1.77657,0 3.97358,-0.40723 4.88226,-0.90494 z m 92.42826,-3.23401 c 9.00677,-4.73713 10.67146,-6.51059 10.67146,-11.36877 0,-3.62763 -3.04114,-13.19663 -5.79917,-18.2472 l -1.02835,-1.88313 -1.35593,2.11794 c -1.31692,2.05704 -1.28944,2.23883 0.95571,6.32099 1.27141,2.31166 2.76972,6.08701 3.32957,8.38966 1.26141,5.18807 1.00355,5.56596 -7.09361,10.39611 -8.22344,4.90545 -8.04206,4.75365 -7.47768,6.25894 0.27789,0.74114 0.72066,1.34754 0.98396,1.34754 0.26329,0 3.32961,-1.49944 6.81404,-3.33208 z m -82.14933,-8.16598 c -0.33347,-6.52398 -0.62295,-7.7176 -2.2993,-9.48085 l -1.91779,-2.0172 -1.47464,1.98466 c -1.45493,1.95814 -1.44948,2.01529 0.40787,4.27439 1.71957,2.09153 4.28656,9.06137 4.28656,11.63878 0,0.58513 0.31023,1.06387 0.6894,1.06387 0.37918,0 0.51773,-3.35864 0.3079,-7.46365 z m 76.93201,2.92823 c 0.97347,-2.05068 1.66502,-3.80782 1.53678,-3.90473 -0.12824,-0.0969 -1.66887,-0.0219 -3.42363,0.16668 l -3.19046,0.34289 0.80745,3.56185 c 0.4441,1.95902 1.18826,3.56184 1.65369,3.56184 0.46543,0 1.64271,-1.67783 2.61617,-3.72853 z m -80.43531,-1.66529 c -1.83385,-6.79743 -4.81857,-8.49211 -7.68936,-4.3659 -1.99315,2.86478 -2.0684,4.10484 -0.25078,4.13271 0.75882,0.0119 2.79877,0.70845 4.53323,1.54846 4.28502,2.07526 4.31817,2.06247 3.40691,-1.31527 z m 86.83742,0.27813 c 5.0853,-3.10567 5.80838,-5.0254 3.86878,-10.27154 -1.89091,-5.1144 -4.64572,-9.71209 -5.49672,-9.1738 -0.39116,0.24742 -0.7112,3.71076 -0.7112,7.6963 0,5.65413 -0.34648,7.94155 -1.57677,10.40969 -2.4949,5.00509 -2.23312,5.09463 3.91591,1.33935 z m -61.99156,-0.18556 c 2.09701,-0.60945 5.05049,-1.891 6.56329,-2.8479 1.5128,-0.9569 5.11869,-2.57981 8.01307,-3.60648 2.89436,-1.02666 4.73034,-1.88404 4.07991,-1.90527 -2.06347,-0.0674 -8.07497,2.10727 -14.43203,5.22069 -4.6214,2.26337 -7.46831,3.10668 -11.43162,3.3863 -4.95128,0.34933 -5.48839,0.21478 -8.68573,-2.1758 -1.87444,-1.40148 -3.77642,-2.42248 -4.2266,-2.26891 -1.23986,0.42298 5.27094,4.76717 8.21032,5.47816 2.91337,0.7047 6.34899,0.33521 11.90939,-1.28079 z m -1.72774,-1.94724 c 2.75575,-0.88018 6.12281,-2.30192 7.48233,-3.15941 1.35953,-0.85749 5.26205,-2.35115 8.67226,-3.31924 3.41022,-0.9681 6.49067,-2.04019 6.84547,-2.38244 0.35479,-0.34224 0.53217,-1.96968 0.39419,-3.61654 l -0.25088,-2.99431 -3.75868,3.69486 c -2.06728,2.03216 -4.26886,3.69484 -4.89241,3.69484 -0.62355,0 -2.41363,0.88894 -3.97794,1.97541 -1.56433,1.08648 -4.47143,2.22516 -6.46023,2.53039 -4.8214,0.73997 -16.21532,-0.20726 -19.52685,-1.62335 -2.17632,-0.93066 -2.72729,-0.94391 -3.05365,-0.0735 -0.58044,1.54808 7.96733,6.87361 11.03251,6.87361 1.36588,0 4.73812,-0.72015 7.49388,-1.60033 z m 58.77669,-2.86785 c 1.62664,-1.09082 1.81508,-1.84353 1.81508,-7.2502 l 0,-6.033 -2.95646,-0.0286 c -1.62604,-0.0158 -3.82808,-0.52257 -4.8934,-1.12631 -1.85481,-1.05118 -1.99552,-0.96389 -3.31748,2.05809 -0.75929,1.7357 -1.92761,3.37067 -2.59627,3.63328 -2.10174,0.82543 -1.33506,3.41792 2.1349,7.2191 2.89257,3.16866 3.66836,3.60719 5.6746,3.20764 1.27817,-0.25455 3.14073,-1.01055 4.13903,-1.68001 z m -5.59529,-5.75194 c 0.72564,-3.0915 1.10327,-3.3841 1.10327,-0.85486 0,1.15723 -0.36899,2.33745 -0.81998,2.62273 -0.53783,0.34018 -0.63532,-0.26813 -0.28329,-1.76787 z m -45.21476,2.90341 c 4.21096,-1.96364 8.29724,-10.3008 6.89664,-14.07107 -0.9456,-2.54546 -3.36474,-3.87019 -4.70987,-2.57916 -0.55633,0.53397 -0.39248,-0.0277 0.36408,-1.24808 0.75659,-1.2204 1.71052,-2.21892 2.11986,-2.21892 0.40933,0 0.53913,0.33965 0.28844,0.75478 -0.25068,0.41514 0.43794,1.66947 1.53025,2.7874 2.27367,2.32701 2.50039,4.93234 0.7931,9.11427 -0.65611,1.60714 -1.01765,3.10144 -0.80343,3.32068 0.44351,0.45392 6.78989,-5.1928 8.14148,-7.24391 0.66338,-1.00672 0.66099,-2.47712 -0.01,-5.74806 -0.82683,-4.03439 -0.72699,-4.88401 1.21586,-10.347 2.09059,-5.87843 2.71627,-12.19418 1.41602,-14.29367 -0.54096,-0.87346 -1.93354,-0.91903 -7.28052,-0.23824 -6.40974,0.81611 -6.73637,0.77588 -10.69755,-1.31781 l -4.08594,-2.15962 -4.03143,1.48369 c -3.46989,1.27702 -4.50905,1.34683 -7.46021,0.50118 -4.38487,-1.25648 -6.36491,-0.60689 -10.45289,3.42934 -2.76915,2.73407 -3.17816,3.52378 -2.49838,4.82375 1.06828,2.04293 0.67745,2.33782 -4.12899,3.11543 -4.60377,0.74484 -6.50685,2.19664 -8.7341,6.66299 l -1.55459,3.11745 2.18018,2.329 c 2.53577,2.70886 4.26524,2.86361 11.85919,1.06115 6.00196,-1.4246 7.444,-1.25517 18.22558,2.14147 6.18867,1.94966 8.05027,2.2435 10.00305,1.57889 2.21359,-0.75338 2.28084,-0.72377 0.86894,0.38264 -2.17994,1.70827 -4.14864,1.51428 -12.39524,-1.2214 -4.01332,-1.33136 -8.93211,-2.42064 -10.93065,-2.42064 -3.45917,0 -11.80376,2.03753 -11.80376,2.88217 0,1.29765 4.12589,8.38655 6.02648,10.3544 2.79681,2.89577 8.01864,5.33414 13.24546,6.18507 5.10411,0.83096 13.68099,0.35084 16.40231,-0.91817 z M 165.1022,795.30401 c -1.66438,-1.98946 -1.69505,-2.41142 -0.17521,-2.41142 0.65042,0 1.18258,0.52321 1.18258,1.16271 0,1.92338 1.40986,2.21394 3.60377,0.74272 1.74868,-1.17265 2.58154,-1.2493 5.34388,-0.49182 2.9148,0.79929 3.46179,0.71585 5.00611,-0.76366 1.78539,-1.71046 4.18869,-1.51822 4.16708,0.33333 -0.009,0.73296 -0.22597,0.68777 -0.74687,-0.15525 -0.62248,-1.00742 -1.02351,-0.91157 -2.62378,0.62706 -1.6614,1.59742 -2.41353,1.75314 -6.2427,1.29254 -2.88366,-0.34686 -4.53829,-0.21803 -4.90036,0.38154 -0.85567,1.41699 -3.1237,1.06422 -4.6145,-0.71775 z m 38.45577,-4.33436 c -1.30085,-0.5791 -4.84858,-1.53453 -7.88387,-2.1232 -3.0353,-0.58867 -5.82556,-1.34059 -6.20059,-1.67095 -1.61388,-1.42158 11.117,-5.65786 16.44961,-5.47372 1.30085,0.045 1.74983,0.24665 0.99776,0.44827 -1.27564,0.34198 -1.26241,0.57725 0.1971,3.50522 2.93532,5.88867 1.73961,7.67361 -3.56001,5.31438 z m 3.99177,-1.79207 c -0.97789,-3.98763 -2.81193,-5.96756 -5.52783,-5.96756 -3.249,0 -3.59626,0.41436 -2.60342,3.10639 0.49063,1.33033 1.94315,2.72235 3.65911,3.50672 4.2484,1.94195 5.07733,1.8223 4.47214,-0.64555 z m -9.12836,-2.53831 c -0.01,-1.21139 -0.12457,-1.24006 -0.80337,-0.20173 -0.68491,1.0476 -0.94828,0.99975 -1.9589,-0.35593 -0.64218,-0.86144 -1.16759,-1.20639 -1.16759,-0.76654 0,1.13616 1.7058,2.73624 2.91702,2.73624 0.5637,0 1.01948,-0.63543 1.01284,-1.41204 z m -5.20161,-0.34936 c -0.22769,-0.37707 -0.74424,-0.47667 -1.1479,-0.22134 -1.03151,0.65245 -0.91536,0.9069 0.41399,0.9069 0.63135,0 0.9616,-0.30851 0.73391,-0.68556 z m 22.56173,2.79663 -1.72901,-2.99917 3.19738,-3.05243 c 1.75855,-1.67884 3.63683,-3.05244 4.17397,-3.05244 0.75956,0 0.76635,0.21517 0.0305,0.96826 -0.52034,0.53253 -0.95092,2.43879 -0.95684,4.23612 -0.0242,7.35787 -1.8514,8.86874 -4.71603,3.89966 z m -29.81771,-4.43758 c -0.51311,-0.52515 -0.93074,-1.69915 -0.92807,-2.60891 0.004,-1.36817 0.21088,-1.24978 1.19669,0.68486 1.30673,2.5645 1.18802,3.41486 -0.26862,1.92405 z m 32.68851,-5.46116 c 0.93046,-0.99906 2.09668,-1.67831 2.59161,-1.50946 0.49491,0.16883 -0.26638,0.98624 -1.69176,1.81644 l -2.5916,1.50947 1.69175,-1.81645 z m 23.42284,33.37353 c 1.36344,-1.16438 2.90986,-2.8891 3.43652,-3.83269 1.15236,-2.06468 1.33179,-8.57412 0.23635,-8.57412 -1.39574,0 -11.44505,5.7714 -11.36409,6.52651 0.0434,0.40448 0.13204,1.2522 0.19709,1.88383 0.11946,1.15944 3.85328,6.11352 4.60776,6.11352 0.22407,0 1.52294,-0.95268 2.88637,-2.11705 z M 171.4673,812.056 c -0.15071,-1.01095 -0.74193,-1.71146 -1.33414,-1.58076 -0.6714,0.14818 -0.89162,-0.22366 -0.59731,-1.0086 0.68723,-1.83293 -0.0771,-1.51139 -1.11204,0.46782 -0.49213,0.94112 -0.54494,1.48986 -0.11735,1.2194 0.42759,-0.27046 0.96193,0.23037 1.18744,1.11295 0.56636,2.2166 2.30756,2.03061 1.97343,-0.21081 z m -2.56388,-6.04884 c -0.23579,-0.62884 -0.42869,-1.57868 -0.42869,-2.11078 0,-0.53208 -1.15301,-1.47283 -2.56226,-2.09054 -1.40924,-0.61771 -2.80432,-1.26403 -3.10017,-1.43625 -0.29585,-0.17223 -0.93683,0.44973 -1.42438,1.3821 -0.71833,1.3737 -0.56729,2.22381 0.79629,4.48189 2.43683,4.03535 3.99867,4.75455 5.73371,2.64022 0.7778,-0.94783 1.22127,-2.23782 0.9855,-2.86664 z m 89.88686,-0.24288 c 1.14888,-0.97585 5.29777,-9.68955 4.83771,-10.16039 -0.1717,-0.17574 -1.27019,0.18916 -2.44109,0.81087 -2.72735,1.44815 -7.42324,0.46376 -9.34021,-1.95798 -2.21456,-2.7977 -1.58896,-3.268 0.92484,-0.69524 2.75801,2.82269 5.5208,3.02591 9.23115,0.679 2.25375,-1.42556 2.65531,-2.13879 2.65531,-4.71623 0,-3.296 -1.34197,-5.04243 -4.95494,-6.4483 -1.61096,-0.62686 -2.60025,-0.59272 -3.72888,0.12865 -1.40029,0.89501 -1.24232,1.05476 1.7855,1.80567 2.54475,0.6311 3.49636,1.33517 4.06845,3.01019 1.07731,3.15427 -0.47604,6.28583 -3.11797,6.28583 -2.21075,0 -5.13714,-1.32402 -6.063,-2.74315 -0.86247,-1.32199 -0.72338,-5.32566 0.18503,-5.32566 0.43361,0 0.78838,-0.41937 0.78838,-0.93193 0,-1.70514 -2.97694,1.77835 -3.4238,4.00637 -0.2394,1.19366 -0.98909,4.86152 -1.66597,8.15081 -1.12616,5.47252 -1.12268,6.10266 0.0409,7.41857 2.06389,2.33406 7.82164,2.71887 10.21859,0.68292 z m -11.20798,-9.8023 c 0.25136,-0.98372 0.34051,-1.90783 0.19811,-2.05357 -0.14239,-0.14574 -3.85352,1.58686 -8.24695,3.85021 -7.16931,3.6934 -7.9051,4.27378 -7.17894,5.66247 0.76782,1.46832 1.16533,1.36312 7.78994,-2.06161 4.9029,-2.53468 7.11686,-4.14131 7.43784,-5.3975 z m -10.62831,1.88491 5.78312,-3.1145 -3.82182,-2.20056 c -3.7179,-2.14072 -13.16276,-6.09429 -14.55893,-6.09429 -1.11895,0 -0.79789,2.13524 0.48489,3.22483 0.64866,0.55098 2.29386,3.31867 3.65597,6.1504 1.36211,2.83175 2.52091,5.14862 2.5751,5.14862 0.0541,0 2.70094,-1.40152 5.88167,-3.1145 z m 23.37077,-5.76446 c 1.18145,-1.33612 1.2741,-1.9669 0.53328,-3.63096 -0.69998,-1.57234 -1.48416,-2.01393 -3.5763,-2.01393 -4.64329,0 -6.03618,4.17127 -2.07742,6.22117 2.68317,1.38938 3.45958,1.30199 5.12044,-0.57628 z m -82.78357,-14.52057 3.07936,-3.22753 -2.89162,0 c -3.06515,0 -4.52388,1.54398 -4.52388,4.78824 0,2.39418 0.85714,2.08566 4.33614,-1.56071 z"
       id="path3170"
       inkscape:connector-curvature="0" />
  </g>
</svg>
