<?xml version="1.0" encoding="UTF-8" standalone="no"?>
<!-- Created with Inkscape (http://www.inkscape.org/) -->

<svg
   xmlns:dc="http://purl.org/dc/elements/1.1/"
   xmlns:cc="http://creativecommons.org/ns#"
   xmlns:rdf="http://www.w3.org/1999/02/22-rdf-syntax-ns#"
   xmlns:svg="http://www.w3.org/2000/svg"
   xmlns="http://www.w3.org/2000/svg"
   xmlns:sodipodi="http://sodipodi.sourceforge.net/DTD/sodipodi-0.dtd"
   xmlns:inkscape="http://www.inkscape.org/namespaces/inkscape"
   width="283.46457"
   height="283.46457"
   id="svg2"
   version="1.1"
   inkscape:version="0.48.5 r10040"
   sodipodi:docname="New document 1">
  <defs
     id="defs4" />
  <sodipodi:namedview
     id="base"
     pagecolor="#ffffff"
     bordercolor="#666666"
     borderopacity="1.0"
     inkscape:pageopacity="0.0"
     inkscape:pageshadow="2"
     inkscape:zoom="2.1984375"
     inkscape:cx="45.753677"
     inkscape:cy="166.81487"
     inkscape:document-units="mm"
     inkscape:current-layer="layer1"
     showgrid="false"
     units="mm"
     inkscape:window-width="1366"
     inkscape:window-height="705"
     inkscape:window-x="-8"
     inkscape:window-y="-8"
     inkscape:window-maximized="1" />
  <metadata
     id="metadata7">
    <rdf:RDF>
      <cc:Work
         rdf:about="">
        <dc:format>image/svg+xml</dc:format>
        <dc:type
           rdf:resource="http://purl.org/dc/dcmitype/StillImage" />
        <dc:title></dc:title>
      </cc:Work>
    </rdf:RDF>
  </metadata>
  <g
     inkscape:label="Layer 1"
     inkscape:groupmode="layer"
     id="layer1"
     transform="translate(0,-768.89763)">
    <path
       style="fill:#000000"
       d="m 256.64575,899.07702 c 0,-0.75966 0.20023,-0.95795 0.58375,-0.57812 0.38352,0.37983 0.38352,0.77642 0,1.15624 -0.38352,0.37983 -0.58375,0.18154 -0.58375,-0.57812 z m 17.26537,0.66522 c -0.2551,-0.40879 -0.30389,-0.90165 -0.10842,-1.09524 0.53,-0.52489 1.10788,0.24709 0.82162,1.0976 -0.20059,0.59599 -0.34009,0.59552 -0.7132,-0.002 z m 4.58982,-0.34617 c 0,-0.46967 0.22642,-0.71536 0.50317,-0.54597 0.27673,0.16939 0.34984,0.55366 0.16244,0.85395 -0.47887,0.76736 -0.66561,0.68096 -0.66561,-0.30798 z m -24.77391,-1.49205 c -0.20131,-0.32257 -0.0838,-0.5865 0.26115,-0.5865 0.34493,0 0.62715,0.26393 0.62715,0.5865 0,0.32258 -0.11751,0.5865 -0.26115,0.5865 -0.14363,0 -0.42585,-0.26392 -0.62715,-0.5865 z m -35.53231,-2.09314 c -4.07476,-2.09381 -5.60466,-6.53493 -3.57722,-10.38426 0.79169,-1.50312 0.74627,-1.78881 -0.59585,-3.74747 -0.79908,-1.16617 -1.45288,-2.46158 -1.45288,-2.87869 0,-0.77471 -0.6396,-1.05123 -3.95922,-1.7117 -1.68251,-0.33474 -2.21705,-0.0598 -4.94305,2.54239 l -3.05653,2.91773 1.29922,1.74037 c 3.00791,4.02921 -0.40902,6.01726 -13.32473,7.75268 -8.02947,1.07888 -11.31938,1.10449 -13.01998,0.10136 -0.32102,-0.18936 -1.42282,-0.27269 -2.44844,-0.18518 -1.4892,0.12707 -2.11707,-0.19183 -3.1176,-1.5834 -1.67291,-2.32675 -1.58457,-3.1538 0.5585,-5.22886 1.61283,-1.56165 8.63264,-4.25829 11.06911,-4.25218 1.06524,0.003 0.93552,-0.40937 -0.86476,-2.74693 -2.08384,-2.70572 -2.60371,-8.31562 -1.0677,-11.52135 0.97248,-2.0296 5.25547,-6.42572 6.7368,-6.91474 0.54688,-0.18054 0.49779,-0.86153 -0.20416,-2.83189 -1.63897,-4.6006 -2.77205,-10.1876 -2.95877,-14.58917 l -0.18223,-4.2957 -3.96819,-2.29653 c -4.96882,-2.87564 -6.97362,-4.50847 -10.52056,-8.56858 -3.54215,-4.05462 -4.08084,-5.83889 -2.18942,-7.25185 0.94947,-0.70929 1.39446,-1.65076 1.41715,-2.99829 0.0268,-1.59184 0.29157,-2.00063 1.39623,-2.15573 1.19154,-0.1673 3.88795,0.54736 7.39147,1.95906 0.96033,0.38695 0.98888,0.27306 0.31529,-1.25759 -0.40737,-0.92569 -1.6154,-2.7203 -2.68452,-3.98801 -1.62222,-1.92356 -1.94386,-2.7857 -1.94386,-5.21046 0,-4.30122 1.09606,-7.18353 3.84231,-10.10413 1.55373,-1.65237 2.83046,-3.79229 3.47985,-5.83254 2.09492,-6.58184 4.53073,-10.83777 7.5601,-13.20927 7.98891,-6.25403 19.10054,-6.30231 26.0513,-0.11318 3.24837,2.89242 5.43952,6.25992 6.37374,9.79553 0.34093,1.2903 0.91824,7.88842 1.2829,14.66249 0.63251,11.74977 1.29102,16.7197 2.21422,16.71151 0.23173,-0.002 3.48599,-0.82386 7.23168,-1.82623 11.6586,-3.11991 11.69671,-3.1268 12.70667,-2.29669 1.23988,1.0191 1.14919,2.1523 -0.3378,4.22047 l -1.25186,1.74113 1.25186,1.3197 c 1.79396,1.8912 1.562,3.34478 -1.05204,6.59261 -2.71624,3.37479 -5.91715,6.0172 -9.45323,7.80379 -1.9713,0.996 -2.45596,1.51623 -2.12415,2.28006 2.37771,5.47364 4.97219,15.11999 4.99851,18.58463 0.0232,3.05782 0.36772,3.51187 3.86974,5.1003 3.46033,1.56952 10.93379,1.84427 14.7049,0.54059 3.30224,-1.14159 9.0152,-7.03817 11.06164,-11.41718 2.36216,-5.05459 2.742,-6.83345 1.45915,-6.83345 -1.65492,0 -4.87722,-3.67944 -5.62235,-6.41998 -0.37937,-1.39528 -0.62806,-4.94232 -0.55266,-7.88232 0.0778,-3.03409 -0.15901,-6.05936 -0.54772,-6.9965 -0.37664,-0.90808 -0.68481,-3.44452 -0.68481,-5.63653 0,-4.14827 0.66571,-5.65162 4.51941,-10.20599 0.77164,-0.91194 1.56505,-2.29754 1.76312,-3.07912 0.59671,-2.35458 1.81593,-1.64808 2.22224,1.28772 0.39234,2.83487 3.17618,9.60773 3.94905,9.60773 0.24639,0 0.60137,-0.39589 0.78885,-0.87975 0.18748,-0.48386 0.71411,-0.87975 1.17028,-0.87975 0.91659,0 1.55965,2.85611 1.57007,6.97334 0.005,1.76959 0.33056,2.80924 1.04288,3.32505 0.85882,0.6219 1.03636,1.68794 1.03636,6.2229 0,5.82803 -0.84525,8.31036 -3.96029,11.6307 -1.25847,1.34141 -1.37534,1.99057 -1.37258,7.62449 0.004,7.16938 -1.27442,12.01766 -4.86799,18.46836 -3.00223,5.38924 -6.77171,9.1125 -11.43577,11.29559 -4.84998,2.27011 -12.18134,3.87963 -16.17692,3.55148 -2.99602,-0.24606 -3.12133,-0.19342 -4.67099,1.96221 -0.88883,1.23641 -1.34008,2.36948 -1.02135,2.56456 0.31406,0.19224 0.57002,1.32366 0.5688,2.51428 -0.004,3.98494 -3.68729,7.97105 -6.32622,6.84647 -1.75004,-0.74579 -5.47526,-0.64476 -5.78627,0.15691 -0.37797,0.97423 -1.42535,0.91949 -3.57873,-0.18702 z m 2.55439,-2.74548 c -0.15463,-1.58829 -0.45713,-1.93707 -1.81413,-2.09171 -1.29502,-0.14757 -1.62857,0.0541 -1.62857,0.98449 0,1.37819 1.4894,3.01334 2.74475,3.01334 0.64006,0 0.83239,-0.52525 0.69795,-1.90612 z m 4.25597,-0.0748 c 0,-1.77057 -1.29547,-2.95298 -2.22583,-2.03158 -0.48243,0.47778 -0.41311,1.02162 0.25986,2.0388 1.17301,1.773 1.96597,1.77009 1.96597,-0.007 z m 5.64263,0.20318 c 0.96941,-1.06087 0.99097,-1.28791 0.19693,-2.0743 -1.0721,-1.06177 -2.69784,-0.56824 -3.19032,0.96849 -0.75712,2.36247 1.18834,3.08116 2.99339,1.10581 z m -50.05801,-2.6394 c 0,-1.27548 -1.44941,-1.66254 -3.0496,-0.8144 -1.31728,0.6982 -1.32415,0.73977 -0.19432,1.17694 1.91864,0.74238 3.24392,0.59426 3.24392,-0.36254 z m -3.87396,-3.2468 c -0.37991,-0.60879 -2.26863,0.1987 -4.0293,1.72265 -1.05398,0.91227 -1.04498,0.95716 0.25272,1.26056 1.46214,0.34184 4.40224,-1.98062 3.77658,-2.98321 z m 14.55234,2.72151 c 6.0772,-0.86104 10.04879,-2.18406 10.04879,-3.34745 0,-0.39889 -0.55581,-1.31119 -1.23514,-2.02734 -1.5013,-1.58266 -1.0264,-2.80058 2.51291,-6.44462 l 2.32385,-2.39261 -2.36961,-0.70311 c -4.14374,-1.22954 -9.89288,-6.24921 -12.96162,-11.31702 -0.75132,-1.24074 -1.76061,-2.25589 -2.24286,-2.25589 -1.53641,0 -6.08931,5.17546 -6.51093,7.40121 -0.9713,5.12761 1.01197,9.23502 5.95141,12.32557 3.47572,2.17472 3.57194,3.58832 0.13209,1.94059 -1.21685,-0.58288 -1.21065,-0.54811 0.10454,0.5865 1.38983,1.19901 1.39053,1.20612 0.11977,1.20612 -0.70306,0 -1.91332,-0.67861 -2.68946,-1.50801 l -1.41117,-1.508 -3.74235,1.00871 c -4.28481,1.15493 -5.32967,1.8123 -3.69332,2.32364 0.62446,0.19513 1.53512,0.6003 2.02369,0.90037 0.48857,0.30008 1.49119,0.80359 2.22805,1.11891 0.73685,0.31533 1.64573,1.23844 2.01972,2.05135 0.79863,1.73592 1.38281,1.7758 9.39164,0.64108 z m 28.56015,-0.45839 c 1.23648,0.46222 2.06931,0.50204 2.4576,0.11749 0.85216,-0.84395 1.90754,-0.71526 2.99902,0.36571 0.88065,0.87216 1.04051,0.87216 2.0136,0 1.2151,-1.08904 3.36922,-1.25113 3.96386,-0.29825 0.56134,0.89951 1.43744,-0.56347 1.00532,-1.67873 -0.22352,-0.57688 -0.85289,-0.73849 -1.99497,-0.51227 -2.50057,0.49529 -2.54472,-0.45337 -0.0948,-2.03755 4.47001,-2.89045 6.97806,-12.19248 4.61635,-17.12146 -1.42089,-2.96546 -5.58429,-4.98758 -8.2808,-4.02191 -2.65783,0.95183 -3.03355,0.84841 -1.80441,-0.49668 1.19677,-1.30968 4.48877,-1.57216 7.15004,-0.57009 0.88065,0.3316 1.72398,0.4813 1.87407,0.33266 0.6428,-0.63661 -1.14996,-12.26898 -2.72999,-17.71354 -2.33115,-8.03284 -2.58839,-8.44152 -5.31346,-8.44152 -1.22914,0 -2.7521,-0.3875 -3.38435,-0.8611 -1.05267,-0.78853 -0.85012,-0.86315 2.40369,-0.88548 4.77336,-0.0327 8.53986,-1.84402 13.11673,-6.30769 4.41703,-4.30779 4.85648,-5.39521 3.12019,-7.72105 l -1.29962,-1.74089 1.29044,-2.16606 c 0.70974,-1.19133 1.14153,-2.31353 0.95954,-2.49377 -0.182,-0.18024 -3.32411,0.51227 -6.98248,1.5389 -9.81687,2.75488 -11.76541,3.14224 -14.67381,2.91709 l -2.63746,-0.20418 1.68877,-0.72328 c 1.27245,-0.54498 1.58206,-0.9743 1.25592,-1.74151 -0.23808,-0.56002 -0.66632,-5.50495 -0.95167,-10.98872 -0.98676,-18.96375 -1.66639,-21.78805 -6.49022,-26.97086 -5.76902,-6.19836 -15.18451,-6.97546 -23.51003,-1.94038 -1.81694,1.09885 -1.87765,1.23395 -0.88831,1.97707 0.99263,0.74559 0.97191,0.79885 -0.31761,0.81628 -1.19318,0.0161 -1.33176,0.23651 -1.02598,1.63153 0.75048,3.42369 -3.54579,14.69465 -5.3284,13.97873 -0.4692,-0.18844 -1.21066,-0.48679 -1.64771,-0.66301 -1.34937,-0.54407 -4.99129,4.07486 -6.04599,7.66794 -1.18382,4.03297 -0.79278,5.80451 1.8199,8.24486 2.87091,2.68152 6.69826,3.47516 16.56872,3.43567 8.5383,-0.0342 16.27119,-1.35539 20.44575,-3.49334 2.15207,-1.10216 2.33757,-0.15651 0.25496,1.29975 -0.82884,0.57957 -3.02741,2.19232 -4.8857,3.5839 -5.55985,4.16349 -10.35684,6.13838 -15.65491,6.44501 -4.04748,0.23425 -4.94375,0.0875 -7.74017,-1.2675 -2.09879,-1.01695 -3.80847,-2.42307 -5.08259,-4.18016 -2.18969,-3.01971 -2.88135,-3.43748 -1.58697,-0.95855 1.4715,2.81817 3.86558,5.28722 6.76143,6.97318 2.44549,1.42376 3.3417,1.60137 8.08041,1.60137 6.86857,0 10.99371,-1.32655 16.67211,-5.36136 2.39314,-1.70046 4.35117,-2.86724 4.35117,-2.59284 0,0.65461 -2.86966,3.63941 -4.69759,4.88607 l -1.44045,0.9824 2.14951,2.06746 c 3.06378,2.94685 7.29008,8.98596 9.0559,12.94032 4.87042,10.90679 5.22611,26.8763 0.79344,35.62331 -1.61847,3.19375 -3.41631,5.11937 -4.77963,5.11937 -1.52328,0 -1.34304,1.3613 0.46146,3.48516 1.4987,1.76395 1.51557,1.87216 0.5922,3.79926 -0.52274,1.09098 -0.95043,2.84237 -0.95043,3.89199 0,1.88678 0.0137,1.89607 1.21408,0.82024 1.04642,-0.93788 1.47234,-0.99159 3.08435,-0.38899 z m 1.07818,-4.13843 c -0.78856,-0.39846 -1.551,-1.07632 -1.69432,-1.50634 -0.20005,-0.60028 0.16049,-0.56622 1.55239,0.14662 0.99713,0.51067 2.77464,0.92849 3.95004,0.92849 1.27392,0 1.98925,0.23688 1.77107,0.5865 -0.50704,0.81251 -3.84794,0.71953 -5.57918,-0.15527 z m 14.75836,-62.03211 c 0,-0.3327 0.39974,-0.75683 0.88831,-0.9425 1.15075,-0.43733 1.15331,-3.0807 0.004,-3.51771 -0.4867,-0.18496 -0.73702,-0.57328 -0.55626,-0.86293 0.56363,-0.90319 2.46664,0.52906 2.88233,2.16929 0.2705,1.06739 0.0786,1.89478 -0.61587,2.65472 -1.0886,1.19112 -2.60206,1.48145 -2.60206,0.49913 z m -49.15302,-11.83763 c 0,-1.5259 2.07196,-3.63127 3.16488,-3.21592 1.12504,0.42756 1.32827,1.58246 0.27846,1.58246 -0.38614,0 -1.31887,0.57386 -2.07271,1.27524 -1.08887,1.01307 -1.37063,1.08672 -1.37063,0.35822 z m -5.34726,-1.78008 c -0.4207,-0.88709 -0.98863,-1.61288 -1.26206,-1.61288 -0.27343,0 -0.49715,-0.26392 -0.49715,-0.5865 0,-1.24734 1.83642,-0.5071 2.40293,0.96859 0.83172,2.16653 0.29066,3.20102 -0.64372,1.23079 z m 25.54741,-6.53684 c -3.87002,-2.12433 -4.06283,-9.26599 -0.39469,-14.61923 0.95665,-1.39612 1.19895,-2.17162 0.7318,-2.34218 -0.52785,-0.19273 -0.51907,-0.44333 0.0359,-1.02623 0.60531,-0.63574 1.10025,-0.59843 2.81703,0.21236 3.4749,1.6411 5.37205,5.6612 6.0208,12.75823 0.28782,3.14861 0.16957,4.0216 -0.6554,4.83863 -1.23256,1.22068 -6.45818,1.32966 -8.55547,0.17842 z m 7.52702,-3.53058 0.18963,-2.29628 -2.13491,1.85641 c -1.19085,1.03551 -2.79592,1.85641 -3.62976,1.85641 -0.89246,0 -1.34011,0.24797 -1.11086,0.61534 0.2126,0.34067 1.7481,0.53701 3.44013,0.43987 l 3.05613,-0.17546 0.18964,-2.29629 z m -3.18902,-1.47398 c 1.65285,-1.80879 2.29146,-5.6483 1.25424,-7.54092 -0.80228,-1.46392 -0.87426,-1.4894 -0.89607,-0.31718 -0.0381,2.04838 -2.92031,5.03257 -4.56064,4.72202 -1.21823,-0.23064 -1.38512,-0.0365 -1.38512,1.61144 0,1.03051 0.17766,2.04962 0.3948,2.26467 0.84193,0.83381 4.19073,0.35657 5.19279,-0.74003 z m -2.07734,-5.69282 c 1.23756,-1.55815 1.69854,-4.90615 0.67551,-4.90615 -1.19646,0 -3.89951,4.90024 -3.26442,5.91792 0.55936,0.89636 1.30475,0.60505 2.58891,-1.01177 z m -35.4894,93.13704 c -0.72624,-0.23975 -2.96095,1.53893 -2.96095,2.35672 0,0.28224 0.81486,-0.0835 1.81081,-0.81273 0.99595,-0.72924 1.51351,-1.42404 1.15014,-1.54399 z m 73.21683,-6.24199 c 5.68816,-1.32848 10.00857,-3.5017 13.54316,-6.81235 1.79039,-1.67697 3.25526,-3.32406 3.25526,-3.66019 0,-0.33614 -0.73285,0.0809 -1.62856,0.92672 -4.09697,3.86882 -13.50089,7.0955 -20.43108,7.01033 -3.51239,-0.0432 -4.58959,0.13162 -4.58959,0.74471 0,0.4406 -0.16175,1.21858 -0.35946,1.72882 -0.30278,0.78143 0.18748,0.92635 3.10908,0.91905 1.9077,-0.005 5.10323,-0.39046 7.10119,-0.85709 z m -28.07414,-7.38008 c 2.39846,-4.73728 3.57086,-12.48734 2.88386,-19.06364 -1.02674,-9.82852 -3.33243,-16.02563 -8.66066,-23.27764 -1.42687,-1.94204 -3.48544,-4.15892 -4.5746,-4.92641 l -1.98029,-1.39542 -3.525,1.26675 c -2.66941,0.95928 -4.91711,1.27318 -9.26043,1.29326 l -5.73542,0.0265 -1.29766,5.20112 c -1.07644,4.3145 -1.24462,6.27018 -0.98655,11.47235 0.37836,7.62713 1.45013,11.80474 4.65998,18.164 1.75038,3.4678 3.37968,5.69585 5.70293,7.79872 4.12203,3.73101 6.47261,4.90493 13.29669,6.64059 6.5507,1.66613 7.10876,1.47768 9.47715,-3.20019 z m 31.66543,2.07284 c 5.84218,-1.87274 7.69827,-2.87168 12.01859,-6.46832 3.9,-3.24674 5.05093,-5.17143 6.62099,-11.07225 1.12231,-4.21805 1.47366,-12.34034 0.55806,-12.90076 -0.28807,-0.17632 -0.82533,0.86553 -1.19392,2.31523 -2.00451,7.88391 -8.82859,16.25715 -14.60102,17.91562 -4.40124,1.26452 -11.79556,1.04275 -15.15845,-0.45463 l -2.75519,-1.22679 -0.26794,1.38814 c -0.14737,0.76347 0.22637,2.48158 0.83052,3.818 0.60416,1.33642 1.09847,3.54472 1.09847,4.90731 0,1.3626 0.17766,2.6534 0.3948,2.86845 0.95422,0.94503 8.0415,0.32479 12.45509,-1.09 z m 20.14261,-33.22793 c 1.41078,-1.15444 1.38494,-2.79288 -0.0991,-6.28492 -0.82857,-1.94963 -1.50649,-4.20944 -1.50649,-5.02179 0,-1.16467 -0.26989,-1.44747 -1.27629,-1.3373 -1.1137,0.12191 -1.40305,-0.36726 -2.27142,-3.84 -1.51154,-6.0449 -2.02332,-5.9306 -3.19763,0.71415 -1.37494,7.78001 -0.68856,12.72742 2.18754,15.76787 1.05578,1.1161 1.65696,1.29006 3.36574,0.97389 1.1442,-0.21171 2.40316,-0.64906 2.79769,-0.9719 z m 4.22268,-6.26747 c 0.76979,-2.54458 0.90104,-7.63313 0.22408,-8.68729 -0.24405,-0.38004 -0.97282,-0.64396 -1.61949,-0.5865 -0.87806,0.078 -1.11999,-0.19255 -0.95547,-1.06854 0.12116,-0.64515 0.34614,-2.87548 0.49994,-4.95629 0.25223,-3.41246 0.18711,-3.70723 -0.66445,-3.00731 -0.51926,0.42679 -0.9441,1.16155 -0.9441,1.6328 0,1.41145 -1.46587,0.48856 -1.66201,-1.04638 -0.0998,-0.78117 -0.82576,-2.79867 -1.6132,-4.48333 -0.78744,-1.68466 -1.60499,-3.74679 -1.81678,-4.58252 l -0.38509,-1.5195 -1.71177,1.94327 c -2.77956,3.15546 -4.06387,6.0398 -4.05398,9.10453 0.0108,3.34924 0.81509,5.09933 1.3812,3.00544 0.20359,-0.75306 0.37381,-2.095 0.37826,-2.98208 0.005,-0.88708 0.20796,-1.60724 0.45224,-1.60035 0.93387,0.0263 3.72906,4.69162 4.43915,7.40915 0.57531,2.20169 1.00858,2.84207 1.92287,2.84207 0.91563,0 1.31394,0.5917 1.77662,2.63925 0.67363,2.98106 2.78382,8.20546 3.31562,8.2088 0.19273,0.001 0.65909,-1.01814 1.03636,-2.26522 z m -89.89268,-4.29933 c 0.98389,-3.94355 1.15663,-5.45617 0.64247,-5.62591 -0.38678,-0.12768 -2.07305,-1.3045 -3.74728,-2.61515 -3.62928,-2.84115 -9.1326,-5.7019 -10.98882,-5.71225 -1.0749,-0.006 -1.33246,0.31885 -1.33246,1.68053 0,1.07237 -0.46062,1.99086 -1.26302,2.5185 -1.80097,1.18428 -1.1589,2.56151 3.25785,6.98805 3.14864,3.15562 10.32047,8.15998 11.69419,8.15998 0.21524,0 0.99692,-2.42719 1.73707,-5.39375 z m -13.50143,-6.75696 c -0.73285,-0.49245 -1.33246,-1.35011 -1.33246,-1.90592 0,-1.4726 2.05391,-3.0766 3.65245,-2.85237 1.65666,0.23238 1.76033,1.28421 0.15477,1.57031 -1.94954,0.3474 -2.43965,1.25911 -1.17412,2.18413 1.6383,1.19749 0.40459,2.1497 -1.30064,1.00385 z m 26.50118,-3.81233 c 2.43705,-0.72791 6.90411,-2.9158 8.58698,-4.20577 1.17183,-0.89823 1.17025,-0.90807 -0.14805,-0.92653 -0.73286,-0.0103 -1.88605,0.5296 -2.56266,1.1997 -0.79908,0.79137 -1.57735,1.06974 -2.22077,0.79431 -0.54482,-0.23321 -4.45497,-0.46566 -8.68924,-0.51654 -4.23427,-0.0509 -8.76464,-0.31364 -10.06749,-0.58392 l -2.36882,-0.49142 1.12625,1.25379 c 0.84159,0.93689 1.3215,1.09331 1.89873,0.61886 0.88526,-0.72762 2.00877,-0.23765 2.00877,0.87603 0,1.07653 1.81965,2.54194 3.55323,2.8615 1.88539,0.34755 6.20631,-0.0805 8.88307,-0.88001 z m -13.32461,-1.63195 c -0.2013,-0.32258 -0.48352,-0.5865 -0.62716,-0.5865 -0.14363,0 -0.26115,0.26392 -0.26115,0.5865 0,0.32257 0.28222,0.5865 0.62716,0.5865 0.34493,0 0.46245,-0.26393 0.26115,-0.5865 z m -0.97098,-28.23884 c 0.59526,-0.94398 0.49876,-1.08615 -0.73726,-1.08615 -1.37659,0 -2.14109,0.96127 -2.14109,2.69219 0,1.06038 1.8467,0.03 2.87835,-1.60604 z m 0.7763,-3.2298 c 0.67606,-0.60593 1.07604,-1.7629 1.0645,-3.07912 l -0.0185,-2.10848 -1.459,2.346 c -2.12429,3.41578 -1.90572,4.91977 0.41298,2.8416 z"
       id="path2996"
       inkscape:connector-curvature="0" />
  </g>
</svg>
